<?xml version="1.0" encoding="UTF-8" standalone="no"?>
<!DOCTYPE svg PUBLIC "-//W3C//DTD SVG 1.1//EN"
 "http://www.w3.org/Graphics/SVG/1.1/DTD/svg11.dtd">
<!-- Generated by graphviz version 12.1.0 (20240811.2233)
 -->
<!-- Title: G Pages: 1 -->
<svg width="832pt" height="133pt"
 viewBox="0.00 0.00 832.44 132.50" xmlns="http://www.w3.org/2000/svg" xmlns:xlink="http://www.w3.org/1999/xlink">
<g id="graph0" class="graph" transform="scale(1 1) rotate(0) translate(4 128.5)">
<title>G</title>
<polygon fill="white" stroke="none" points="-4,4 -4,-128.5 828.44,-128.5 828.44,4 -4,4"/>
<!-- Car1 -->
<g id="node1" class="node">
<title>Car1</title>
<ellipse fill="none" stroke="black" cx="28.83" cy="-18" rx="28.83" ry="18"/>
<text text-anchor="middle" x="28.83" y="-12.95" font-family="Times,serif" font-size="14.00">Car1</text>
</g>
<!-- CarState1 -->
<g id="node2" class="node">
<title>CarState1</title>
<ellipse fill="none" stroke="black" cx="146.83" cy="-106.5" rx="47.26" ry="18"/>
<text text-anchor="middle" x="146.83" y="-101.45" font-family="Times,serif" font-size="14.00">CarState1</text>
</g>
<!-- CarState1&#45;&gt;Car1 -->
<g id="edge1" class="edge">
<title>CarState1&#45;&gt;Car1</title>
<path fill="none" stroke="black" d="M103.67,-98.64C84.63,-93.65 63.24,-85.11 48.33,-70.5 41.95,-64.24 37.62,-55.69 34.71,-47.35"/>
<polygon fill="black" stroke="black" points="38.09,-46.44 31.96,-37.8 31.36,-48.37 38.09,-46.44"/>
<text text-anchor="middle" x="95.58" y="-57.2" font-family="Times,serif" font-size="14.00">temporal_part_of</text>
</g>
<!-- OwnedRole -->
<g id="node6" class="node">
<title>OwnedRole</title>
<ellipse fill="none" stroke="black" cx="146.83" cy="-18" rx="54.93" ry="18"/>
<text text-anchor="middle" x="146.83" y="-12.95" font-family="Times,serif" font-size="14.00">OwnedRole</text>
</g>
<!-- CarState1&#45;&gt;OwnedRole -->
<g id="edge3" class="edge">
<title>CarState1&#45;&gt;OwnedRole</title>
<path fill="none" stroke="black" d="M146.83,-88.41C146.83,-76.76 146.83,-61.05 146.83,-47.52"/>
<polygon fill="black" stroke="black" points="150.33,-47.86 146.83,-37.86 143.33,-47.86 150.33,-47.86"/>
<text text-anchor="middle" x="194.08" y="-57.2" font-family="Times,serif" font-size="14.00">member_of_kind</text>
</g>
<!-- CarOwnership -->
<g id="node7" class="node">
<title>CarOwnership</title>
<ellipse fill="none" stroke="black" cx="311.83" cy="-18" rx="64.66" ry="18"/>
<text text-anchor="middle" x="311.83" y="-12.95" font-family="Times,serif" font-size="14.00">CarOwnership</text>
</g>
<!-- CarState1&#45;&gt;CarOwnership -->
<g id="edge2" class="edge">
<title>CarState1&#45;&gt;CarOwnership</title>
<path fill="none" stroke="black" d="M183.47,-94.93C201.84,-88.94 224.1,-80.62 242.83,-70.5 257.29,-62.69 272.06,-52.08 284.21,-42.53"/>
<polygon fill="black" stroke="black" points="286.17,-45.44 291.76,-36.44 281.78,-39.99 286.17,-45.44"/>
<text text-anchor="middle" x="306.28" y="-57.2" font-family="Times,serif" font-size="14.00">participant_in</text>
</g>
<!-- Person1 -->
<g id="node3" class="node">
<title>Person1</title>
<ellipse fill="none" stroke="black" cx="460.83" cy="-18" rx="40.6" ry="18"/>
<text text-anchor="middle" x="460.83" y="-12.95" font-family="Times,serif" font-size="14.00">Person1</text>
</g>
<!-- PersonState1 -->
<g id="node4" class="node">
<title>PersonState1</title>
<ellipse fill="none" stroke="black" cx="460.83" cy="-106.5" rx="59.03" ry="18"/>
<text text-anchor="middle" x="460.83" y="-101.45" font-family="Times,serif" font-size="14.00">PersonState1</text>
</g>
<!-- PersonState1&#45;&gt;Person1 -->
<g id="edge4" class="edge">
<title>PersonState1&#45;&gt;Person1</title>
<path fill="none" stroke="black" d="M460.83,-88.41C460.83,-76.76 460.83,-61.05 460.83,-47.52"/>
<polygon fill="black" stroke="black" points="464.33,-47.86 460.83,-37.86 457.33,-47.86 464.33,-47.86"/>
<text text-anchor="middle" x="508.08" y="-57.2" font-family="Times,serif" font-size="14.00">temporal_part_of</text>
</g>
<!-- OwnerRole -->
<g id="node5" class="node">
<title>OwnerRole</title>
<ellipse fill="none" stroke="black" cx="578.83" cy="-18" rx="53.4" ry="18"/>
<text text-anchor="middle" x="578.83" y="-12.95" font-family="Times,serif" font-size="14.00">OwnerRole</text>
</g>
<!-- PersonState1&#45;&gt;OwnerRole -->
<g id="edge6" class="edge">
<title>PersonState1&#45;&gt;OwnerRole</title>
<path fill="none" stroke="black" d="M509.49,-96.1C526.14,-90.87 543.82,-82.82 556.83,-70.5 563.51,-64.18 568.25,-55.5 571.58,-47.07"/>
<polygon fill="black" stroke="black" points="574.84,-48.37 574.71,-37.78 568.2,-46.14 574.84,-48.37"/>
<text text-anchor="middle" x="615.49" y="-57.2" font-family="Times,serif" font-size="14.00">member_of_kind</text>
</g>
<!-- PersonState1&#45;&gt;CarOwnership -->
<g id="edge5" class="edge">
<title>PersonState1&#45;&gt;CarOwnership</title>
<path fill="none" stroke="black" d="M425.41,-91.75C411.49,-85.85 395.59,-78.48 381.83,-70.5 367.69,-62.3 352.97,-51.81 340.71,-42.44"/>
<polygon fill="black" stroke="black" points="343.09,-39.86 333.05,-36.48 338.79,-45.38 343.09,-39.86"/>
<text text-anchor="middle" x="419.33" y="-57.2" font-family="Times,serif" font-size="14.00">participant_in</text>
</g>
<!-- Car2 -->
<g id="node8" class="node">
<title>Car2</title>
<ellipse fill="none" stroke="black" cx="696.83" cy="-18" rx="28.83" ry="18"/>
<text text-anchor="middle" x="696.83" y="-12.95" font-family="Times,serif" font-size="14.00">Car2</text>
</g>
<!-- Person2 -->
<g id="node9" class="node">
<title>Person2</title>
<ellipse fill="none" stroke="black" cx="783.83" cy="-18" rx="40.6" ry="18"/>
<text text-anchor="middle" x="783.83" y="-12.95" font-family="Times,serif" font-size="14.00">Person2</text>
</g>
<!-- CarOwnership2 -->
<g id="node10" class="node">
<title>CarOwnership2</title>
<ellipse fill="none" stroke="black" cx="739.83" cy="-106.5" rx="69.26" ry="18"/>
<text text-anchor="middle" x="739.83" y="-101.45" font-family="Times,serif" font-size="14.00">CarOwnership2</text>
</g>
<!-- CarOwnership2&#45;&gt;Car2 -->
<g id="edge7" class="edge">
<title>CarOwnership2&#45;&gt;Car2</title>
<path fill="none" stroke="black" d="M731.34,-88.41C725.25,-76.17 716.94,-59.45 710,-45.49"/>
<polygon fill="black" stroke="black" points="713.28,-44.22 705.69,-36.82 707.01,-47.34 713.28,-44.22"/>
<text text-anchor="middle" x="740.18" y="-57.2" font-family="Times,serif" font-size="14.00">owned</text>
</g>
<!-- CarOwnership2&#45;&gt;Person2 -->
<g id="edge8" class="edge">
<title>CarOwnership2&#45;&gt;Person2</title>
<path fill="none" stroke="black" d="M751.35,-88.37C754.9,-82.78 758.7,-76.48 761.83,-70.5 765.82,-62.89 769.67,-54.4 773.01,-46.54"/>
<polygon fill="black" stroke="black" points="776.2,-47.99 776.77,-37.41 769.73,-45.32 776.2,-47.99"/>
<text text-anchor="middle" x="786.07" y="-57.2" font-family="Times,serif" font-size="14.00">owner</text>
</g>
</g>
</svg>
