<?xml version="1.0" encoding="UTF-8" standalone="no"?>
<!DOCTYPE svg PUBLIC "-//W3C//DTD SVG 1.1//EN"
 "http://www.w3.org/Graphics/SVG/1.1/DTD/svg11.dtd">
<!-- Generated by graphviz version 12.1.0 (20240811.2233)
 -->
<!-- Title: G Pages: 1 -->
<svg width="586pt" height="260pt"
 viewBox="0.00 0.00 586.38 260.00" xmlns="http://www.w3.org/2000/svg" xmlns:xlink="http://www.w3.org/1999/xlink">
<g id="graph0" class="graph" transform="scale(1 1) rotate(0) translate(4 256)">
<title>G</title>
<polygon fill="white" stroke="none" points="-4,4 -4,-256 582.38,-256 582.38,4 -4,4"/>
<!-- TemporallyBounded -->
<g id="node1" class="node">
<title>TemporallyBounded</title>
<path fill="lightgray" stroke="black" d="M243.62,-180C243.62,-180 139.12,-180 139.12,-180 133.12,-180 127.12,-174 127.12,-168 127.12,-168 127.12,-156 127.12,-156 127.12,-150 133.12,-144 139.12,-144 139.12,-144 243.62,-144 243.62,-144 249.62,-144 255.62,-150 255.62,-156 255.62,-156 255.62,-168 255.62,-168 255.62,-174 249.62,-180 243.62,-180"/>
<text text-anchor="middle" x="191.38" y="-156.95" font-family="Times,serif" font-size="14.00">TemporallyBounded</text>
</g>
<!-- Object -->
<g id="node2" class="node">
<title>Object</title>
<path fill="lightgray" stroke="black" d="M415.38,-252C415.38,-252 385.38,-252 385.38,-252 379.38,-252 373.38,-246 373.38,-240 373.38,-240 373.38,-228 373.38,-228 373.38,-222 379.38,-216 385.38,-216 385.38,-216 415.38,-216 415.38,-216 421.38,-216 427.38,-222 427.38,-228 427.38,-228 427.38,-240 427.38,-240 427.38,-246 421.38,-252 415.38,-252"/>
<text text-anchor="middle" x="400.38" y="-228.95" font-family="Times,serif" font-size="14.00">Object</text>
</g>
<!-- TemporallyBounded&#45;&gt;Object -->
<g id="edge1" class="edge">
<title>TemporallyBounded&#45;&gt;Object</title>
<path fill="none" stroke="black" d="M243.58,-180.48C280.51,-192.85 329.19,-209.16 362.45,-220.3"/>
<polygon fill="black" stroke="black" points="361.07,-223.53 371.66,-223.38 363.29,-216.89 361.07,-223.53"/>
</g>
<!-- Activity -->
<g id="node3" class="node">
<title>Activity</title>
<path fill="lightgray" stroke="black" d="M76.5,-36C76.5,-36 40.25,-36 40.25,-36 34.25,-36 28.25,-30 28.25,-24 28.25,-24 28.25,-12 28.25,-12 28.25,-6 34.25,0 40.25,0 40.25,0 76.5,0 76.5,0 82.5,0 88.5,-6 88.5,-12 88.5,-12 88.5,-24 88.5,-24 88.5,-30 82.5,-36 76.5,-36"/>
<text text-anchor="middle" x="58.38" y="-12.95" font-family="Times,serif" font-size="14.00">Activity</text>
</g>
<!-- Individual -->
<g id="node4" class="node">
<title>Individual</title>
<path fill="lightgray" stroke="black" d="M172.12,-108C172.12,-108 124.62,-108 124.62,-108 118.62,-108 112.62,-102 112.62,-96 112.62,-96 112.62,-84 112.62,-84 112.62,-78 118.62,-72 124.62,-72 124.62,-72 172.12,-72 172.12,-72 178.12,-72 184.12,-78 184.12,-84 184.12,-84 184.12,-96 184.12,-96 184.12,-102 178.12,-108 172.12,-108"/>
<text text-anchor="middle" x="148.38" y="-84.95" font-family="Times,serif" font-size="14.00">Individual</text>
</g>
<!-- Activity&#45;&gt;Individual -->
<g id="edge2" class="edge">
<title>Activity&#45;&gt;Individual</title>
<path fill="none" stroke="black" d="M80.62,-36.3C91.66,-44.89 105.17,-55.39 117.21,-64.76"/>
<polygon fill="black" stroke="black" points="114.83,-67.35 124.88,-70.72 119.13,-61.82 114.83,-67.35"/>
</g>
<!-- Individual&#45;&gt;TemporallyBounded -->
<g id="edge5" class="edge">
<title>Individual&#45;&gt;TemporallyBounded</title>
<path fill="none" stroke="black" d="M159,-108.3C163.79,-116.1 169.56,-125.49 174.89,-134.17"/>
<polygon fill="black" stroke="black" points="171.86,-135.92 180.08,-142.61 177.82,-132.25 171.86,-135.92"/>
</g>
<!-- UniquelyIdentifiable -->
<g id="node7" class="node">
<title>UniquelyIdentifiable</title>
<path fill="lightgray" stroke="black" d="M390.62,-180C390.62,-180 286.12,-180 286.12,-180 280.12,-180 274.12,-174 274.12,-168 274.12,-168 274.12,-156 274.12,-156 274.12,-150 280.12,-144 286.12,-144 286.12,-144 390.62,-144 390.62,-144 396.62,-144 402.62,-150 402.62,-156 402.62,-156 402.62,-168 402.62,-168 402.62,-174 396.62,-180 390.62,-180"/>
<text text-anchor="middle" x="338.38" y="-156.95" font-family="Times,serif" font-size="14.00">UniquelyIdentifiable</text>
</g>
<!-- Individual&#45;&gt;UniquelyIdentifiable -->
<g id="edge6" class="edge">
<title>Individual&#45;&gt;UniquelyIdentifiable</title>
<path fill="none" stroke="black" d="M184.22,-104.58C187.32,-105.74 190.4,-106.89 193.38,-108 221.75,-118.54 253.31,-130.1 279.72,-139.72"/>
<polygon fill="black" stroke="black" points="278.31,-142.93 288.9,-143.07 280.7,-136.36 278.31,-142.93"/>
</g>
<!-- Aggregation -->
<g id="node5" class="node">
<title>Aggregation</title>
<path fill="lightgray" stroke="black" d="M178.12,-36C178.12,-36 118.62,-36 118.62,-36 112.62,-36 106.62,-30 106.62,-24 106.62,-24 106.62,-12 106.62,-12 106.62,-6 112.62,0 118.62,0 118.62,0 178.12,0 178.12,0 184.12,0 190.12,-6 190.12,-12 190.12,-12 190.12,-24 190.12,-24 190.12,-30 184.12,-36 178.12,-36"/>
<text text-anchor="middle" x="148.38" y="-12.95" font-family="Times,serif" font-size="14.00">Aggregation</text>
</g>
<!-- Aggregation&#45;&gt;Individual -->
<g id="edge3" class="edge">
<title>Aggregation&#45;&gt;Individual</title>
<path fill="none" stroke="black" d="M148.38,-36.3C148.38,-43.59 148.38,-52.27 148.38,-60.46"/>
<polygon fill="black" stroke="black" points="144.88,-60.38 148.38,-70.38 151.88,-60.38 144.88,-60.38"/>
</g>
<!-- Class&lt;T&gt; -->
<g id="node6" class="node">
<title>Class&lt;T&gt;</title>
<path fill="lightgray" stroke="black" d="M448.38,-108C448.38,-108 402.38,-108 402.38,-108 396.38,-108 390.38,-102 390.38,-96 390.38,-96 390.38,-84 390.38,-84 390.38,-78 396.38,-72 402.38,-72 402.38,-72 448.38,-72 448.38,-72 454.38,-72 460.38,-78 460.38,-84 460.38,-84 460.38,-96 460.38,-96 460.38,-102 454.38,-108 448.38,-108"/>
<text text-anchor="middle" x="425.38" y="-84.95" font-family="Times,serif" font-size="14.00">Class&lt;T&gt;</text>
</g>
<!-- Class&lt;T&gt;&#45;&gt;UniquelyIdentifiable -->
<g id="edge4" class="edge">
<title>Class&lt;T&gt;&#45;&gt;UniquelyIdentifiable</title>
<path fill="none" stroke="black" d="M403.87,-108.3C393.31,-116.8 380.4,-127.19 368.84,-136.49"/>
<polygon fill="black" stroke="black" points="366.71,-133.71 361.11,-142.7 371.1,-139.16 366.71,-133.71"/>
</g>
<!-- UniquelyIdentifiable&#45;&gt;Object -->
<g id="edge11" class="edge">
<title>UniquelyIdentifiable&#45;&gt;Object</title>
<path fill="none" stroke="black" d="M353.7,-180.3C360.91,-188.44 369.65,-198.31 377.61,-207.3"/>
<polygon fill="black" stroke="black" points="374.97,-209.6 384.22,-214.76 380.21,-204.96 374.97,-209.6"/>
</g>
<!-- Naming&lt;T&gt; -->
<g id="node8" class="node">
<title>Naming&lt;T&gt;</title>
<path fill="lightgray" stroke="black" d="M274.88,-108C274.88,-108 213.88,-108 213.88,-108 207.88,-108 201.88,-102 201.88,-96 201.88,-96 201.88,-84 201.88,-84 201.88,-78 207.88,-72 213.88,-72 213.88,-72 274.88,-72 274.88,-72 280.88,-72 286.88,-78 286.88,-84 286.88,-84 286.88,-96 286.88,-96 286.88,-102 280.88,-108 274.88,-108"/>
<text text-anchor="middle" x="244.38" y="-84.95" font-family="Times,serif" font-size="14.00">Naming&lt;T&gt;</text>
</g>
<!-- Naming&lt;T&gt;&#45;&gt;TemporallyBounded -->
<g id="edge8" class="edge">
<title>Naming&lt;T&gt;&#45;&gt;TemporallyBounded</title>
<path fill="none" stroke="black" d="M231.27,-108.3C225.24,-116.27 217.95,-125.9 211.26,-134.74"/>
<polygon fill="black" stroke="black" points="208.49,-132.6 205.24,-142.69 214.07,-136.83 208.49,-132.6"/>
</g>
<!-- Naming&lt;T&gt;&#45;&gt;UniquelyIdentifiable -->
<g id="edge7" class="edge">
<title>Naming&lt;T&gt;&#45;&gt;UniquelyIdentifiable</title>
<path fill="none" stroke="black" d="M267.61,-108.3C279.25,-116.97 293.52,-127.6 306.2,-137.04"/>
<polygon fill="black" stroke="black" points="303.76,-139.58 313.87,-142.75 307.94,-133.97 303.76,-139.58"/>
</g>
<!-- PeriodOfTime -->
<g id="node9" class="node">
<title>PeriodOfTime</title>
<path fill="lightgray" stroke="black" d="M82.75,-108C82.75,-108 12,-108 12,-108 6,-108 0,-102 0,-96 0,-96 0,-84 0,-84 0,-78 6,-72 12,-72 12,-72 82.75,-72 82.75,-72 88.75,-72 94.75,-78 94.75,-84 94.75,-84 94.75,-96 94.75,-96 94.75,-102 88.75,-108 82.75,-108"/>
<text text-anchor="middle" x="47.38" y="-84.95" font-family="Times,serif" font-size="14.00">PeriodOfTime</text>
</g>
<!-- PeriodOfTime&#45;&gt;TemporallyBounded -->
<g id="edge9" class="edge">
<title>PeriodOfTime&#45;&gt;TemporallyBounded</title>
<path fill="none" stroke="black" d="M83.34,-108.48C102.21,-117.66 125.53,-128.99 145.67,-138.78"/>
<polygon fill="black" stroke="black" points="143.98,-141.85 154.51,-143.08 147.04,-135.56 143.98,-141.85"/>
</g>
<!-- PointInTime -->
<g id="node10" class="node">
<title>PointInTime</title>
<path fill="lightgray" stroke="black" d="M493.88,-180C493.88,-180 432.88,-180 432.88,-180 426.88,-180 420.88,-174 420.88,-168 420.88,-168 420.88,-156 420.88,-156 420.88,-150 426.88,-144 432.88,-144 432.88,-144 493.88,-144 493.88,-144 499.88,-144 505.88,-150 505.88,-156 505.88,-156 505.88,-168 505.88,-168 505.88,-174 499.88,-180 493.88,-180"/>
<text text-anchor="middle" x="463.38" y="-156.95" font-family="Times,serif" font-size="14.00">PointInTime</text>
</g>
<!-- PointInTime&#45;&gt;Object -->
<g id="edge10" class="edge">
<title>PointInTime&#45;&gt;Object</title>
<path fill="none" stroke="black" d="M447.8,-180.3C440.4,-188.53 431.41,-198.52 423.25,-207.58"/>
<polygon fill="black" stroke="black" points="420.87,-205 416.78,-214.77 426.07,-209.68 420.87,-205"/>
</g>
<!-- PossibleWorld -->
<g id="node11" class="node">
<title>PossibleWorld</title>
<path fill="lightgray" stroke="black" d="M292.12,-36C292.12,-36 220.62,-36 220.62,-36 214.62,-36 208.62,-30 208.62,-24 208.62,-24 208.62,-12 208.62,-12 208.62,-6 214.62,0 220.62,0 220.62,0 292.12,0 292.12,0 298.12,0 304.12,-6 304.12,-12 304.12,-12 304.12,-24 304.12,-24 304.12,-30 298.12,-36 292.12,-36"/>
<text text-anchor="middle" x="256.38" y="-12.95" font-family="Times,serif" font-size="14.00">PossibleWorld</text>
</g>
<!-- PossibleWorld&#45;&gt;Individual -->
<g id="edge12" class="edge">
<title>PossibleWorld&#45;&gt;Individual</title>
<path fill="none" stroke="black" d="M229.4,-36.48C215.77,-45.32 199.04,-56.16 184.33,-65.7"/>
<polygon fill="black" stroke="black" points="182.76,-62.54 176.28,-70.92 186.57,-68.41 182.76,-62.54"/>
</g>
<!-- Scalar -->
<g id="node12" class="node">
<title>Scalar</title>
<path fill="lightgray" stroke="black" d="M566.38,-180C566.38,-180 536.38,-180 536.38,-180 530.38,-180 524.38,-174 524.38,-168 524.38,-168 524.38,-156 524.38,-156 524.38,-150 530.38,-144 536.38,-144 536.38,-144 566.38,-144 566.38,-144 572.38,-144 578.38,-150 578.38,-156 578.38,-156 578.38,-168 578.38,-168 578.38,-174 572.38,-180 566.38,-180"/>
<text text-anchor="middle" x="551.38" y="-156.95" font-family="Times,serif" font-size="14.00">Scalar</text>
</g>
<!-- Scalar&#45;&gt;Object -->
<g id="edge13" class="edge">
<title>Scalar&#45;&gt;Object</title>
<path fill="none" stroke="black" d="M524.26,-175.84C521.26,-177.25 518.26,-178.66 515.38,-180 489.69,-191.98 460.72,-205.33 438.28,-215.64"/>
<polygon fill="black" stroke="black" points="436.83,-212.45 429.2,-219.8 439.75,-218.81 436.83,-212.45"/>
</g>
<!-- State&lt;T&gt; -->
<g id="node13" class="node">
<title>State&lt;T&gt;</title>
<path fill="lightgray" stroke="black" d="M360.25,-108C360.25,-108 316.5,-108 316.5,-108 310.5,-108 304.5,-102 304.5,-96 304.5,-96 304.5,-84 304.5,-84 304.5,-78 310.5,-72 316.5,-72 316.5,-72 360.25,-72 360.25,-72 366.25,-72 372.25,-78 372.25,-84 372.25,-84 372.25,-96 372.25,-96 372.25,-102 366.25,-108 360.25,-108"/>
<text text-anchor="middle" x="338.38" y="-84.95" font-family="Times,serif" font-size="14.00">State&lt;T&gt;</text>
</g>
<!-- State&lt;T&gt;&#45;&gt;TemporallyBounded -->
<g id="edge14" class="edge">
<title>State&lt;T&gt;&#45;&gt;TemporallyBounded</title>
<path fill="none" stroke="black" d="M304.28,-107.24C284.67,-116.57 259.76,-128.44 238.32,-138.65"/>
<polygon fill="black" stroke="black" points="237,-135.4 229.48,-142.85 240.01,-141.72 237,-135.4"/>
</g>
<!-- State&lt;T&gt;&#45;&gt;UniquelyIdentifiable -->
<g id="edge15" class="edge">
<title>State&lt;T&gt;&#45;&gt;UniquelyIdentifiable</title>
<path fill="none" stroke="black" d="M338.38,-108.3C338.38,-115.59 338.38,-124.27 338.38,-132.46"/>
<polygon fill="black" stroke="black" points="334.88,-132.38 338.38,-142.38 341.88,-132.38 334.88,-132.38"/>
</g>
<!-- Unit -->
<g id="node14" class="node">
<title>Unit</title>
<path fill="lightgray" stroke="black" d="M520.38,-108C520.38,-108 490.38,-108 490.38,-108 484.38,-108 478.38,-102 478.38,-96 478.38,-96 478.38,-84 478.38,-84 478.38,-78 484.38,-72 490.38,-72 490.38,-72 520.38,-72 520.38,-72 526.38,-72 532.38,-78 532.38,-84 532.38,-84 532.38,-96 532.38,-96 532.38,-102 526.38,-108 520.38,-108"/>
<text text-anchor="middle" x="505.38" y="-84.95" font-family="Times,serif" font-size="14.00">Unit</text>
</g>
<!-- Unit&#45;&gt;UniquelyIdentifiable -->
<g id="edge16" class="edge">
<title>Unit&#45;&gt;UniquelyIdentifiable</title>
<path fill="none" stroke="black" d="M477.93,-104.16C475.05,-105.48 472.16,-106.78 469.38,-108 444.72,-118.8 417.14,-130.07 393.67,-139.43"/>
<polygon fill="black" stroke="black" points="392.61,-136.09 384.61,-143.03 395.19,-142.6 392.61,-136.09"/>
</g>
</g>
</svg>
