<?xml version="1.0" standalone="no"?>
<svg xmlns="http://www.w3.org/2000/svg" xmlns:xlink="http://www.w3.org/1999/xlink" width="705pt" height="133pt" viewBox="0.00 0.00 705.07 132.8">
<g id="graph0" class="graph" transform="translate(4,128.8000030517578) scale(1)" data-name="G">

<polygon fill="white" stroke="none" points="-4,4 -4,-128.8 701.07,-128.8 701.07,4 -4,4"/>
<!-- state1 -->
<g id="node1" class="node" pointer-events="visible" data-name="state1">

<ellipse fill="none" stroke="black" cx="149.88" cy="-106.8" rx="33.62" ry="18"/>
<text text-anchor="middle" x="149.88" y="-102.6" font-family="Times,serif" font-size="14.00">state1</text>
</g>
<!-- role1 -->
<g id="node3" class="node" pointer-events="visible" data-name="role1">

<ellipse fill="none" stroke="black" cx="30.88" cy="-18" rx="30.76" ry="18"/>
<text text-anchor="middle" x="30.88" y="-13.8" font-family="Times,serif" font-size="14.00">role1</text>
</g>
<!-- state1&#45;&gt;role1 -->
<g id="edge1" class="edge" data-name="state1-&gt;role1">

<path fill="none" stroke="black" d="M117.08,-101.78C95.32,-97.5 67.55,-88.73 49.46,-70.8 43.11,-64.51 38.92,-55.91 36.16,-47.52"/>
<polygon fill="black" stroke="black" points="39.56,-46.67 33.6,-37.91 32.8,-48.47 39.56,-46.67"/>
<text text-anchor="middle" x="98.09" y="-58.2" font-family="Times,serif" font-size="14.00">member_of_kind</text>
</g>
<!-- association1 -->
<g id="node5" class="node" pointer-events="visible" data-name="association1">

<ellipse fill="none" stroke="black" cx="149.88" cy="-18" rx="58.55" ry="18"/>
<text text-anchor="middle" x="149.88" y="-13.8" font-family="Times,serif" font-size="14.00">association1</text>
</g>
<!-- state1&#45;&gt;association1 -->
<g id="edge2" class="edge" data-name="state1-&gt;association1">

<path fill="none" stroke="black" d="M149.88,-88.65C149.88,-76.96 149.88,-61.19 149.88,-47.62"/>
<polygon fill="black" stroke="black" points="153.38,-47.92 149.88,-37.92 146.38,-47.92 153.38,-47.92"/>
<text text-anchor="middle" x="188.75" y="-58.2" font-family="Times,serif" font-size="14.00">participant_in</text>
</g>
<!-- entity1 -->
<g id="node7" class="node" pointer-events="visible" data-name="entity1">

<ellipse fill="none" stroke="black" cx="264.88" cy="-18" rx="37.71" ry="18"/>
<text text-anchor="middle" x="264.88" y="-13.8" font-family="Times,serif" font-size="14.00">entity1</text>
</g>
<!-- state1&#45;&gt;entity1 -->
<g id="edge3" class="edge" data-name="state1-&gt;entity1">

<path fill="none" stroke="black" d="M179.55,-97.91C196.27,-92.37 216.77,-83.62 231.88,-70.8 239.94,-63.96 246.71,-54.64 251.98,-45.8"/>
<polygon fill="black" stroke="black" points="254.99,-47.58 256.73,-37.13 248.86,-44.22 254.99,-47.58"/>
<text text-anchor="middle" x="295.47" y="-58.2" font-family="Times,serif" font-size="14.00">temporal_part_of</text>
</g>
<!-- state2 -->
<g id="node2" class="node" pointer-events="visible" data-name="state2">

<ellipse fill="none" stroke="black" cx="503.88" cy="-106.8" rx="33.62" ry="18"/>
<text text-anchor="middle" x="503.88" y="-102.6" font-family="Times,serif" font-size="14.00">state2</text>
</g>
<!-- role2 -->
<g id="node4" class="node" pointer-events="visible" data-name="role2">

<ellipse fill="none" stroke="black" cx="384.88" cy="-18" rx="30.76" ry="18"/>
<text text-anchor="middle" x="384.88" y="-13.8" font-family="Times,serif" font-size="14.00">role2</text>
</g>
<!-- state2&#45;&gt;role2 -->
<g id="edge4" class="edge" data-name="state2-&gt;role2">

<path fill="none" stroke="black" d="M471.08,-101.78C449.32,-97.5 421.55,-88.73 403.46,-70.8 397.11,-64.51 392.92,-55.91 390.16,-47.52"/>
<polygon fill="black" stroke="black" points="393.56,-46.67 387.6,-37.91 386.8,-48.47 393.56,-46.67"/>
<text text-anchor="middle" x="452.09" y="-58.2" font-family="Times,serif" font-size="14.00">member_of_kind</text>
</g>
<!-- association2 -->
<g id="node6" class="node" pointer-events="visible" data-name="association2">

<ellipse fill="none" stroke="black" cx="503.88" cy="-18" rx="58.55" ry="18"/>
<text text-anchor="middle" x="503.88" y="-13.8" font-family="Times,serif" font-size="14.00">association2</text>
</g>
<!-- state2&#45;&gt;association2 -->
<g id="edge5" class="edge" data-name="state2-&gt;association2">

<path fill="none" stroke="black" d="M503.88,-88.65C503.88,-76.96 503.88,-61.19 503.88,-47.62"/>
<polygon fill="black" stroke="black" points="507.38,-47.92 503.88,-37.92 500.38,-47.92 507.38,-47.92"/>
<text text-anchor="middle" x="542.75" y="-58.2" font-family="Times,serif" font-size="14.00">participant_in</text>
</g>
<!-- entity2 -->
<g id="node8" class="node" pointer-events="visible" data-name="entity2">

<ellipse fill="none" stroke="black" cx="618.88" cy="-18" rx="37.71" ry="18"/>
<text text-anchor="middle" x="618.88" y="-13.8" font-family="Times,serif" font-size="14.00">entity2</text>
</g>
<!-- state2&#45;&gt;entity2 -->
<g id="edge6" class="edge" data-name="state2-&gt;entity2">

<path fill="none" stroke="black" d="M533.55,-97.91C550.27,-92.37 570.77,-83.62 585.88,-70.8 593.94,-63.96 600.71,-54.64 605.98,-45.8"/>
<polygon fill="black" stroke="black" points="608.99,-47.58 610.73,-37.13 602.86,-44.22 608.99,-47.58"/>
<text text-anchor="middle" x="648.47" y="-58.2" font-family="Times,serif" font-size="14.00">temporal_part_of</text>
</g>
</g>
</svg>