<?xml version="1.0" standalone="no"?>
<svg xmlns="http://www.w3.org/2000/svg" xmlns:xlink="http://www.w3.org/1999/xlink" width="582pt" height="133pt" viewBox="0.00 0.00 582.07 132.8">
<g id="graph0" class="graph" transform="translate(4,128.8000030517578) scale(1)" data-name="G">

<polygon fill="white" stroke="none" points="-4,4 -4,-128.8 578.07,-128.8 578.07,4 -4,4"/>
<!-- state1 -->
<g id="node1" class="node" pointer-events="visible" data-name="state1">

<ellipse fill="none" stroke="black" cx="268.88" cy="-106.8" rx="33.62" ry="18"/>
<text text-anchor="middle" x="268.88" y="-102.6" font-family="Times,serif" font-size="14.00">state1</text>
</g>
<!-- role1 -->
<g id="node2" class="node" pointer-events="visible" data-name="role1">

<ellipse fill="none" stroke="black" cx="30.88" cy="-18" rx="30.76" ry="18"/>
<text text-anchor="middle" x="30.88" y="-13.8" font-family="Times,serif" font-size="14.00">role1</text>
</g>
<!-- state1&#45;&gt;role1 -->
<g id="edge1" class="edge" data-name="state1-&gt;role1">

<path fill="none" stroke="black" d="M235.14,-104.04C182.31,-100.66 83.21,-91.68 55.46,-70.8 47.54,-64.84 42.07,-55.69 38.33,-46.72"/>
<polygon fill="black" stroke="black" points="41.72,-45.8 35.09,-37.53 35.11,-48.13 41.72,-45.8"/>
<text text-anchor="middle" x="104.09" y="-58.2" font-family="Times,serif" font-size="14.00">member_of_kind</text>
</g>
<!-- association1 -->
<g id="node4" class="node" pointer-events="visible" data-name="association1">

<ellipse fill="none" stroke="black" cx="262.88" cy="-18" rx="58.55" ry="18"/>
<text text-anchor="middle" x="262.88" y="-13.8" font-family="Times,serif" font-size="14.00">association1</text>
</g>
<!-- state1&#45;&gt;association1 -->
<g id="edge2" class="edge" data-name="state1-&gt;association1">

<path fill="none" stroke="black" d="M267.69,-88.65C266.88,-76.96 265.8,-61.19 264.86,-47.62"/>
<polygon fill="black" stroke="black" points="268.37,-47.66 264.19,-37.92 261.38,-48.14 268.37,-47.66"/>
<text text-anchor="middle" x="305.75" y="-58.2" font-family="Times,serif" font-size="14.00">participant_in</text>
</g><g id="edge4" class="edge" data-name="state1-&gt;role2" data-comment="state1-&gt;association1">

<path fill="none" stroke="black" d="M235.78,-102.51C213.1,-98.56 183.9,-89.88 165.46,-70.8 159.36,-64.49 155.63,-55.87 153.37,-47.49"/>
<polygon fill="black" stroke="black" points="156.84,-46.99 151.39,-37.9 149.98,-48.4 156.84,-46.99"/>
<text text-anchor="middle" x="214.09" y="-58.2" font-family="Times,serif" font-size="14.00">member_of_kind</text>
</g>
<!-- entity1 -->
<g id="node6" class="node" pointer-events="visible" data-name="entity1">

<ellipse fill="none" stroke="black" cx="513.88" cy="-18" rx="37.71" ry="18"/>
<text text-anchor="middle" x="513.88" y="-13.8" font-family="Times,serif" font-size="14.00">entity1</text>
</g>
<!-- state1&#45;&gt;entity1 -->
<g id="edge3" class="edge" data-name="state1-&gt;entity1">

<path fill="none" stroke="black" d="M302.62,-104.28C340.36,-101.48 402.53,-93.51 450.88,-70.8 465.64,-63.87 479.88,-52.68 491.07,-42.48"/>
<polygon fill="black" stroke="black" points="493.42,-45.08 498.25,-35.65 488.59,-40.01 493.42,-45.08"/>
<text text-anchor="middle" x="525.47" y="-58.2" font-family="Times,serif" font-size="14.00">temporal_part_of</text>
</g>
<!-- state2 -->

<!-- role2 -->
<g id="node3" class="node" pointer-events="visible" data-name="role2">

<ellipse fill="none" stroke="black" cx="149.88" cy="-18" rx="30.76" ry="18"/>
<text text-anchor="middle" x="149.88" y="-13.8" font-family="Times,serif" font-size="14.00">role2</text>
</g><g id="edge5" class="edge" data-name="state1-&gt;association2" data-comment="role2">

<path fill="none" stroke="black" d="M296.93,-96.61C312.95,-90.63 332.95,-81.88 348.88,-70.8 359.61,-63.34 369.92,-53.33 378.36,-44.1"/>
<polygon fill="black" stroke="black" points="380.86,-46.55 384.83,-36.73 375.6,-41.93 380.86,-46.55"/>
<text text-anchor="middle" x="407.75" y="-58.2" font-family="Times,serif" font-size="14.00">participant_in</text>
</g>
<!-- state2&#45;&gt;role2 -->

<!-- association2 -->
<g id="node5" class="node" pointer-events="visible" data-name="association2">

<ellipse fill="none" stroke="black" cx="398.88" cy="-18" rx="58.55" ry="18"/>
<text text-anchor="middle" x="398.88" y="-13.8" font-family="Times,serif" font-size="14.00">association2</text>
</g>
</g>
</svg>